<?xml version="1.0" encoding="utf-8"?>
<!-- Generator: Adobe Illustrator 25.2.0, SVG Export Plug-In . SVG Version: 6.00 Build 0)  -->
<svg version="1.1" id="Layer_1" xmlns="http://www.w3.org/2000/svg" xmlns:xlink="http://www.w3.org/1999/xlink" x="0px" y="0px"
	 viewBox="0 0 64 64" style="enable-background:new 0 0 64 64;" xml:space="preserve">
<style type="text/css">
	.st0{fill:#1f2335;}
	.st1{clip-path:url(#SVGID_2_);}
	.st2{fill:#449dab;}
</style>
<g>
	<path class="st0" d="M13,7h38c3.3,0,6,2.7,6,6v38c0,3.3-2.7,6-6,6H13c-3.3,0-6-2.7-6-6V13C7,9.7,9.7,7,13,7z"/>
	<g>
		<g>
			<defs>
				<path id="SVGID_1_" d="M33,7h18c3.3,0,6,2.7,6,6v18H41c-4.4,0-8-3.6-8-8V7z"/>
			</defs>
			<clipPath id="SVGID_2_">
				<use xlink:href="#SVGID_1_"  style="overflow:visible;"/>
			</clipPath>
			<g class="st1">
				<path class="st2" d="M33,7h18c3.3,0,6,2.7,6,6v18H41c-4.4,0-8-3.6-8-8V7z"/>
				<g>
					<circle class="st2" cx="57.5" cy="30.5" r="7.5"/>
					<path class="st0" d="M27.4,6.5c-1.1,0-2,0.9-2,2v1.2l37.7,21.8c0.8-0.2,1.4-1,1.4-1.9v-2l-36.4-21H27.4z M36.2,6.5l28.3,16.3
						v-4.7L44.4,6.5H36.2z M52.5,6.5l12.1,7V8.8l-3.9-2.3H52.5z M25.5,14.3V19l21.6,12.5h8.1L25.5,14.3z M25.5,23.7v4.7l5.4,3.1h8.1
						L25.5,23.7z"/>
				</g>
			</g>
		</g>
	</g>
</g>
</svg>
