<?xml version="1.0" encoding="UTF-8" standalone="yes"?>
<svg xmlns="http://www.w3.org/2000/svg" xmlns:xlink="http://www.w3.org/1999/xlink" width="22" height="22" viewBox="0 0 22 22">
  <defs>
    <clipPath id="clip-0">
      <path clip-rule="nonzero" d="M 11 2.0625 L 19.9375 2.0625 L 19.9375 11 L 11 11 Z M 11 2.0625 "/>
    </clipPath>
    <clipPath id="clip-1">
      <path clip-rule="nonzero" d="M 11.34375 2.40625 L 17.53125 2.40625 C 18.664062 2.40625 19.59375 3.335938 19.59375 4.46875 L 19.59375 10.65625 L 14.09375 10.65625 C 12.582031 10.65625 11.34375 9.417969 11.34375 7.90625 Z M 11.34375 2.40625 "/>
    </clipPath>
    <clipPath id="clip-2">
      <path clip-rule="nonzero" d="M 17.1875 7.5625 L 19.9375 7.5625 L 19.9375 11 L 17.1875 11 Z M 17.1875 7.5625 "/>
    </clipPath>
    <clipPath id="clip-3">
      <path clip-rule="nonzero" d="M 11.34375 2.40625 L 17.53125 2.40625 C 18.664062 2.40625 19.59375 3.335938 19.59375 4.46875 L 19.59375 10.65625 L 14.09375 10.65625 C 12.582031 10.65625 11.34375 9.417969 11.34375 7.90625 Z M 11.34375 2.40625 "/>
    </clipPath>
    <clipPath id="clip-4">
      <path clip-rule="nonzero" d="M 11.6875 3 L 13.75 3 L 13.75 4.8125 L 11.6875 4.8125 Z M 11.6875 3 "/>
    </clipPath>
    <clipPath id="clip-5">
      <path clip-rule="nonzero" d="M 11.34375 2.40625 L 17.53125 2.40625 C 18.664062 2.40625 19.59375 3.335938 19.59375 4.46875 L 19.59375 10.65625 L 14.09375 10.65625 C 12.582031 10.65625 11.34375 9.417969 11.34375 7.90625 Z M 11.34375 2.40625 "/>
    </clipPath>
    <clipPath id="clip-6">
      <path clip-rule="nonzero" d="M 11 7.5625 L 19.9375 7.5625 L 19.9375 9.625 L 11 9.625 Z M 11 7.5625 "/>
    </clipPath>
    <clipPath id="clip-7">
      <path clip-rule="nonzero" d="M 11.34375 2.40625 L 17.53125 2.40625 C 18.664062 2.40625 19.59375 3.335938 19.59375 4.46875 L 19.59375 10.65625 L 14.09375 10.65625 C 12.582031 10.65625 11.34375 9.417969 11.34375 7.90625 Z M 11.34375 2.40625 "/>
    </clipPath>
    <clipPath id="clip-8">
      <path clip-rule="nonzero" d="M 11.6875 5 L 13.75 5 L 13.75 6.875 L 11.6875 6.875 Z M 11.6875 5 "/>
    </clipPath>
    <clipPath id="clip-9">
      <path clip-rule="nonzero" d="M 11.34375 2.40625 L 17.53125 2.40625 C 18.664062 2.40625 19.59375 3.335938 19.59375 4.46875 L 19.59375 10.65625 L 14.09375 10.65625 C 12.582031 10.65625 11.34375 9.417969 11.34375 7.90625 Z M 11.34375 2.40625 "/>
    </clipPath>
  </defs>
  <path fill-rule="nonzero" fill="#1f2335" fill-opacity="1" d="M 4.46875 2.40625 L 17.53125 2.40625 C 18.664062 2.40625 19.59375 3.335938 19.59375 4.46875 L 19.59375 17.53125 C 19.59375 18.664062 18.664062 19.59375 17.53125 19.59375 L 4.46875 19.59375 C 3.335938 19.59375 2.40625 18.664062 2.40625 17.53125 L 2.40625 4.46875 C 2.40625 3.335938 3.335938 2.40625 4.46875 2.40625 Z M 4.46875 2.40625 "/>
  <g clip-path="url(#clip-0)">
    <g clip-path="url(#clip-1)">
      <path fill-rule="nonzero" fill="#ff9e64" fill-opacity="1" d="M 11.34375 2.40625 L 17.53125 2.40625 C 18.664062 2.40625 19.59375 3.335938 19.59375 4.46875 L 19.59375 10.65625 L 14.09375 10.65625 C 12.582031 10.65625 11.34375 9.417969 11.34375 7.90625 Z M 11.34375 2.40625 "/>
    </g>
  </g>
  <g clip-path="url(#clip-2)">
    <g clip-path="url(#clip-3)">
      <path fill-rule="nonzero" fill="#ff9e64" fill-opacity="1" d="M 22.34375 10.484375 C 22.34375 11.90625 21.1875 13.0625 19.765625 13.0625 C 18.34375 13.0625 17.1875 11.90625 17.1875 10.484375 C 17.1875 9.0625 18.34375 7.90625 19.765625 7.90625 C 21.1875 7.90625 22.34375 9.0625 22.34375 10.484375 Z M 22.34375 10.484375 "/>
    </g>
  </g>
  <g clip-path="url(#clip-4)">
    <g clip-path="url(#clip-5)">
      <path fill-rule="nonzero" fill="#1f2335" fill-opacity="1" d="M 12.273438 3.300781 L 13.027344 3.300781 C 13.199219 3.300781 13.335938 3.4375 13.335938 3.609375 L 13.335938 4.367188 C 13.335938 4.539062 13.199219 4.675781 13.027344 4.675781 L 12.273438 4.675781 C 12.101562 4.675781 11.960938 4.539062 11.960938 4.367188 L 11.960938 3.609375 C 11.960938 3.402344 12.101562 3.300781 12.273438 3.300781 Z M 12.273438 3.300781 "/>
    </g>
  </g>
  <g clip-path="url(#clip-6)">
    <g clip-path="url(#clip-7)">
      <path fill-rule="nonzero" fill="#1f2335" fill-opacity="1" d="M 10.757812 7.769531 L 10.757812 9.074219 L 19.59375 9.074219 L 19.59375 7.769531 Z M 18.011719 8.765625 L 17.324219 8.765625 L 17.324219 8.078125 L 18.011719 8.078125 Z M 19.285156 8.765625 L 18.597656 8.765625 L 18.597656 8.078125 L 19.285156 8.078125 Z M 19.285156 8.765625 "/>
    </g>
  </g>
  <g clip-path="url(#clip-8)">
    <g clip-path="url(#clip-9)">
      <path fill-rule="nonzero" fill="#1f2335" fill-opacity="1" d="M 12.273438 5.257812 L 13.027344 5.257812 C 13.199219 5.257812 13.335938 5.398438 13.335938 5.570312 L 13.335938 6.324219 C 13.335938 6.496094 13.199219 6.632812 13.027344 6.632812 L 12.273438 6.632812 C 12.101562 6.632812 11.960938 6.496094 11.960938 6.324219 L 11.960938 5.570312 C 11.960938 5.363281 12.101562 5.257812 12.273438 5.257812 Z M 12.273438 5.257812 "/>
    </g>
  </g>
</svg>