<?xml version="1.0" encoding="UTF-8" standalone="yes"?>
<svg xmlns="http://www.w3.org/2000/svg" xmlns:xlink="http://www.w3.org/1999/xlink" width="16" height="16" viewBox="0 0 16 16">
  <path fill-rule="nonzero" fill="#449dab" fill-opacity="1" d="M 4 2 L 12 2 C 13.132812 2 14 2.867188 14 4 L 14 12 C 14 13.132812 13.132812 14 12 14 L 4 14 C 2.867188 14 2 13.132812 2 12 L 2 4 C 2 2.867188 2.867188 2 4 2 Z M 4 2 "/>
  <path fill-rule="nonzero" fill="#1f2335" fill-opacity="1" d="M 3.933594 3.464844 C 3.667969 3.464844 3.464844 3.800781 3.464844 4.199219 L 3.464844 4.667969 L 11.597656 12.535156 L 12.066406 12.535156 C 12.332031 12.535156 12.535156 12.199219 12.535156 11.800781 L 12.535156 11.597656 L 4.132812 3.464844 Z M 5.667969 3.464844 L 12.535156 10.066406 L 12.535156 8.199219 L 7.667969 3.535156 L 5.667969 3.535156 Z M 9.265625 3.464844 L 12.597656 6.667969 L 12.597656 4.734375 L 11.265625 3.464844 Z M 3.464844 6.199219 L 3.464844 8.066406 L 8.066406 12.464844 L 10.066406 12.464844 Z M 3.464844 9.597656 L 3.464844 11.464844 L 4.535156 12.464844 L 6.535156 12.464844 Z M 3.464844 9.597656 "/>
</svg>